<svg version="1.1" id="Layer_1" xmlns="http://www.w3.org/2000/svg" xmlns:xlink="http://www.w3.org/1999/xlink" x="0px" y="0px"
	 width="100%" viewBox="0 0 300 300" enable-background="new 0 0 300 300" xml:space="preserve">
<path fill="#5D5792" opacity="1.000000" stroke="none" 
	d="
M44.000000,301.000000 
	C29.760939,301.000000 15.521878,301.000000 1.000000,301.000000 
	C1.000000,293.314758 1.000000,285.626068 1.385155,277.453278 
	C3.629048,276.343170 5.704817,276.058472 7.311895,275.036652 
	C19.260605,267.439362 31.116325,259.695831 43.348591,251.910400 
	C45.616280,250.892151 47.504772,249.887756 49.462521,249.044083 
	C57.296135,245.668335 65.151253,242.342468 73.086823,239.265884 
	C73.450966,240.022598 73.726700,240.511612 73.956696,241.356689 
	C69.367821,249.511703 64.592094,257.189178 60.418682,265.181183 
	C59.111439,267.684479 59.426369,271.034882 58.912003,274.338989 
	C57.715912,276.474609 56.533180,278.228027 55.510361,280.070221 
	C51.645428,287.031158 47.832432,294.020996 44.000000,301.000000 
z"/>
<path fill="#72789C" opacity="1.000000" stroke="none" 
	d="
M301.000000,87.000000 
	C301.000000,109.020897 301.000000,131.041794 300.658630,153.616898 
	C298.529816,155.293350 296.625275,156.266708 294.976013,157.564499 
	C288.938049,162.315659 282.985046,167.174805 277.006714,171.589905 
	C277.299774,169.566711 277.743622,167.954865 277.826233,166.324707 
	C277.902283,164.823853 278.133392,162.617691 277.310699,161.965652 
	C276.290222,161.156845 274.157196,161.257462 272.686035,161.648071 
	C271.158447,162.053696 269.854553,163.286743 268.440216,164.137039 
	C262.963287,167.429810 257.481323,170.714279 252.076813,173.666382 
	C252.434647,172.220001 252.716888,171.109085 253.087708,169.650269 
	C258.528320,159.783493 263.550842,150.056335 269.376770,140.836899 
	C272.132568,136.475830 270.965790,134.657013 267.091705,132.658630 
	C268.105774,130.572052 268.865021,128.710480 269.989197,127.104370 
	C275.005707,119.937447 280.077637,112.807961 285.225525,105.734810 
	C289.111511,100.395454 293.075806,95.109085 297.159088,89.920166 
	C298.121765,88.696846 299.703217,87.960419 301.000000,87.000000 
z"/>
<path fill="#758191" opacity="1.000000" stroke="none" 
	d="
M301.000000,179.000000 
	C301.000000,191.020889 301.000000,203.041794 300.670563,215.632904 
	C294.279144,221.554443 288.090240,226.771210 282.211731,232.316971 
	C279.494324,234.880554 277.382629,238.086197 274.605591,241.017654 
	C271.767029,241.926849 268.991180,242.351059 266.930389,243.795471 
	C259.488892,249.011307 252.288040,254.570404 244.700989,259.806213 
	C240.167068,257.123566 240.651306,253.419785 241.805222,249.535828 
	C243.541367,243.692230 245.268082,237.845825 247.186356,231.724243 
	C253.184082,223.683243 260.254395,216.724045 263.373535,206.958038 
	C275.923004,203.435486 285.655914,196.473511 293.430237,186.517776 
	C295.601624,183.737076 298.457916,181.491226 301.000000,179.000000 
z"/>
<path fill="#6C7291" opacity="1.000000" stroke="none" 
	d="
M151.000000,301.000000 
	C143.312424,301.000000 135.624847,301.000000 127.486664,300.610870 
	C130.067810,291.114319 132.530930,281.913177 141.735153,276.302979 
	C150.402069,271.020294 158.312592,264.690430 163.230423,255.275650 
	C167.534912,247.035065 172.389984,239.082092 177.369019,230.960327 
	C179.265671,230.312866 180.800995,229.721481 182.323654,229.099091 
	C190.550415,225.736328 198.774063,222.365936 206.923218,219.333588 
	C206.565521,220.779587 206.283371,221.890198 205.807312,223.290680 
	C200.742065,233.386826 195.870728,243.193100 190.673126,253.100693 
	C177.579559,261.820374 165.199280,270.747162 158.864624,285.683197 
	C156.629700,290.952759 153.643295,295.903625 151.000000,301.000000 
z"/>
<path fill="#574A9B" opacity="1.000000" stroke="none" 
	d="
M1.000000,268.000000 
	C1.000000,256.312439 1.000000,244.624878 1.325741,232.367706 
	C3.774796,229.969620 6.194209,228.389008 7.968954,226.268768 
	C14.795943,218.112747 21.439756,209.802628 28.106136,201.513199 
	C32.775799,195.706619 37.371155,189.840271 42.345531,183.912903 
	C47.795067,180.882874 52.898769,177.940521 58.336491,175.130417 
	C60.780865,176.175339 62.891224,177.088028 64.897491,178.331497 
	C63.022175,181.443573 61.478451,184.405594 59.438545,186.973434 
	C52.336956,195.912933 44.952854,204.628983 37.900017,213.605865 
	C34.128788,218.405960 34.484970,219.933273 38.895214,224.322113 
	C38.387573,225.367615 38.079597,226.170120 37.558361,226.794617 
	C30.544626,235.198059 23.641788,243.700348 16.416157,251.918488 
	C11.517473,257.490051 6.155030,262.653839 1.000000,268.000000 
z"/>
<path fill="#4827B0" opacity="1.000000" stroke="none" 
	d="
M1.000000,92.000000 
	C1.000000,85.645599 1.000000,79.291206 1.331171,72.367393 
	C4.311847,69.827240 7.102749,68.018997 9.586544,65.857811 
	C20.740000,56.153038 31.776033,46.313366 42.923187,36.601284 
	C46.043156,33.882977 49.665604,31.704601 52.592030,28.808195 
	C59.907661,21.567606 67.028305,14.124429 74.050713,6.597887 
	C75.438972,5.109953 76.037354,2.885042 77.000000,1.000000 
	C84.354256,1.000000 91.708504,1.000000 99.484413,1.355896 
	C99.533501,2.615906 99.381096,3.727805 98.754280,4.391962 
	C92.545853,10.970249 86.258873,17.474405 79.690414,24.153297 
	C69.919342,30.706871 59.520924,36.096588 51.213135,43.754391 
	C40.064899,54.030403 30.521919,66.049942 20.333124,77.360008 
	C19.696938,78.066200 19.437096,79.111443 18.676155,80.100037 
	C16.681639,81.517456 15.093685,82.955292 13.328367,84.125587 
	C9.264740,86.819519 5.114873,89.383369 1.000000,92.000000 
z"/>
<path fill="#686C90" opacity="1.000000" stroke="none" 
	d="
M177.001831,231.002060 
	C172.389984,239.082092 167.534912,247.035065 163.230423,255.275650 
	C158.312592,264.690430 150.402069,271.020294 141.735153,276.302979 
	C132.530930,281.913177 130.067810,291.114319 127.018036,300.610870 
	C116.645775,301.000000 106.291542,301.000000 95.515053,300.640900 
	C100.396820,292.521606 105.700851,284.761414 111.393036,276.984222 
	C118.584885,275.446686 124.674263,272.592499 129.169647,267.088684 
	C136.505463,258.107330 143.729065,249.034332 151.401947,239.994003 
	C154.845703,238.842590 157.951447,237.840759 160.915359,236.520493 
	C166.320847,234.112671 171.642273,231.516113 176.999176,229.332245 
	C177.000320,230.111481 177.001068,230.556778 177.001831,231.002060 
z"/>
<path fill="#727D8E" opacity="1.000000" stroke="none" 
	d="
M246.998810,232.000610 
	C245.268082,237.845825 243.541367,243.692230 241.805222,249.535828 
	C240.651306,253.419785 240.167068,257.123566 244.610565,260.161560 
	C242.155945,267.278351 239.093185,273.717773 236.950562,280.450012 
	C234.819214,287.146881 233.612274,294.137939 232.000000,301.000000 
	C221.645767,301.000000 211.291550,301.000000 200.572693,300.659912 
	C202.779907,292.924377 207.819855,286.797577 208.966553,278.450012 
	C210.294617,268.782135 214.208206,259.469360 216.999939,249.751205 
	C217.000961,249.332504 217.001389,249.165024 217.333923,248.897125 
	C220.043961,247.337997 222.691666,246.184357 224.749924,244.364182 
	C231.283051,238.586807 238.703293,234.539413 246.998810,232.000610 
z"/>
<path fill="#5135B1" opacity="1.000000" stroke="none" 
	d="
M126.000000,0.999999 
	C135.354233,1.000000 144.708450,1.000000 154.485596,1.355895 
	C151.155029,6.439579 147.846451,11.628501 143.540131,15.783277 
	C137.602097,21.512341 130.888580,26.434158 124.550575,31.753412 
	C120.745995,34.946453 117.329620,38.706608 113.206314,41.395336 
	C101.767639,48.854290 92.916023,58.933868 83.641022,69.044083 
	C79.520218,70.725647 75.759628,72.361145 72.001129,73.582680 
	C72.827362,70.364021 73.358223,67.429291 74.532883,64.780006 
	C77.567390,57.936035 83.561096,52.316898 83.191849,43.727699 
	C93.203789,34.159714 103.136909,24.980700 112.796280,15.522118 
	C117.462936,10.952460 121.614960,5.857248 126.000000,0.999999 
z"/>
<path fill="#6C69A5" opacity="1.000000" stroke="none" 
	d="
M301.000000,47.000008 
	C301.000000,58.354229 301.000000,69.708458 300.638336,81.575989 
	C296.913116,83.842850 293.417847,85.385811 290.211853,87.391251 
	C282.071289,92.483376 274.060333,97.782654 265.707153,102.818909 
	C260.640594,99.826927 257.390564,102.849113 253.943970,105.515686 
	C251.402222,107.482178 248.653976,109.181778 246.043640,110.643158 
	C249.615402,105.845619 247.771835,101.881920 245.100281,97.674332 
	C249.841278,91.013145 254.509628,84.699196 259.105408,78.332840 
	C260.824341,75.951668 262.374237,73.448425 264.360840,70.955215 
	C271.578278,66.675690 278.525726,62.578663 285.265503,58.164547 
	C290.641663,54.643513 295.764648,50.735977 301.000000,47.000008 
z"/>
<path fill="#6050B0" opacity="1.000000" stroke="none" 
	d="
M222.000000,1.000003 
	C229.354248,1.000000 236.708496,1.000000 244.486359,1.358004 
	C241.219421,6.698034 237.784973,11.897496 233.781143,16.613577 
	C226.952118,24.657442 219.916565,32.494358 216.782211,43.250427 
	C212.375397,49.001942 208.186630,54.499580 203.670532,60.099060 
	C202.125366,61.037003 200.944733,61.934441 199.683624,62.699196 
	C191.799759,67.480141 183.897949,72.231445 175.842407,76.666565 
	C173.771408,73.082275 173.774445,70.104576 176.174866,66.890602 
	C177.334717,65.337669 177.428040,62.988163 178.277557,60.807747 
	C185.686539,52.105427 193.196869,43.875381 199.846344,35.000347 
	C205.793243,27.063030 210.797409,18.418694 216.203827,10.077428 
	C218.156403,7.064916 220.069107,4.026563 222.000000,1.000003 
z"/>
<path fill="#788A8A" opacity="1.000000" stroke="none" 
	d="
M301.000000,256.000000 
	C301.000000,270.933411 301.000000,285.866791 301.000000,301.000000 
	C283.312927,301.000000 265.625122,301.000000 247.513931,300.643555 
	C254.060364,290.191406 261.030182,280.095703 268.407532,269.980774 
	C279.257568,267.938965 289.743042,266.064850 297.458374,257.624054 
	C298.265350,256.741241 299.801910,256.525330 301.000000,256.000000 
z"/>
<path fill="#665CAC" opacity="1.000000" stroke="none" 
	d="
M273.000000,1.000001 
	C282.333374,1.000000 291.666748,1.000000 301.000000,1.000000 
	C301.000000,2.374428 301.000000,3.687252 300.644043,5.544278 
	C296.990387,8.503093 293.406921,10.612738 290.446259,13.387018 
	C279.685944,23.469999 269.079193,33.719250 258.527740,44.021763 
	C253.553436,48.878689 248.836182,53.998882 243.667145,59.101822 
	C239.886856,60.801357 236.441910,62.398861 232.718567,63.886646 
	C231.949432,63.757858 231.458832,63.732742 230.967911,63.720814 
	C229.297867,63.680237 227.627716,63.644314 225.957596,63.606613 
	C226.486511,61.953617 226.679840,60.076694 227.605972,58.688747 
	C230.634415,54.150127 234.190308,49.950638 237.053543,45.318001 
	C240.310104,40.048996 243.039581,34.454227 246.239731,28.773834 
	C254.806702,20.542934 263.162231,12.570035 271.412201,4.489329 
	C272.263733,3.655237 272.485840,2.178529 273.000000,1.000001 
z"/>
<path fill="#543BAF" opacity="1.000000" stroke="none" 
	d="
M84.001221,68.998024 
	C92.916023,58.933868 101.767639,48.854290 113.206314,41.395336 
	C117.329620,38.706608 120.745995,34.946453 124.550575,31.753412 
	C130.888580,26.434158 137.602097,21.512341 143.540131,15.783277 
	C147.846451,11.628501 151.155029,6.439579 154.954254,1.355895 
	C162.354248,1.000000 169.708496,1.000000 177.421539,1.317834 
	C177.428116,2.194136 177.185394,2.879088 176.707718,3.292663 
	C162.914124,15.235084 148.814178,26.843336 135.402191,39.198635 
	C128.628906,45.438274 123.094147,53.022377 116.651207,60.087402 
	C113.628120,61.498314 110.940849,62.796043 108.280708,64.147194 
	C101.181564,67.753029 94.094093,71.381828 86.812149,74.727203 
	C85.748627,72.634613 84.874924,70.816322 84.001221,68.998024 
z"/>
<path fill="#5D4CAD" opacity="1.000000" stroke="none" 
	d="
M221.531372,1.000003 
	C220.069107,4.026563 218.156403,7.064916 216.203827,10.077428 
	C210.797409,18.418694 205.793243,27.063030 199.846344,35.000347 
	C193.196869,43.875381 185.686539,52.105427 177.943558,60.909157 
	C174.965027,62.632271 172.605667,64.082565 170.220123,65.488441 
	C164.820694,68.670509 159.408325,71.830643 154.046478,74.642281 
	C155.269638,72.113914 156.233612,69.789513 157.661926,67.798195 
	C164.406174,58.395580 168.780243,47.553028 176.963409,38.883015 
	C181.198242,34.396248 182.414459,27.060362 185.181793,20.735960 
	C186.585709,19.132414 187.993149,17.932495 188.984299,16.453569 
	C192.401306,11.354955 195.672974,6.158928 199.000000,1.000002 
	C206.354248,1.000000 213.708496,1.000000 221.531372,1.000003 
z"/>
<path fill="#5740AF" opacity="1.000000" stroke="none" 
	d="
M198.531464,1.000002 
	C195.672974,6.158928 192.401306,11.354955 188.984299,16.453569 
	C187.993149,17.932495 186.585709,19.132414 184.840836,20.819992 
	C183.404099,21.571922 182.414139,21.840176 181.599854,22.375584 
	C174.008087,27.367260 166.059738,31.920893 158.989792,37.571259 
	C152.497513,42.759956 146.961212,49.144798 140.651642,55.091484 
	C132.533340,58.454193 124.767151,61.728073 117.000809,64.585037 
	C117.000229,62.778271 116.999809,61.388424 116.999390,59.998573 
	C123.094147,53.022377 128.628906,45.438274 135.402191,39.198635 
	C148.814178,26.843336 162.914124,15.235084 176.707718,3.292663 
	C177.185394,2.879088 177.428116,2.194136 177.890167,1.317834 
	C184.687637,1.000000 191.375290,1.000000 198.531464,1.000002 
z"/>
<path fill="#4722B5" opacity="1.000000" stroke="none" 
	d="
M76.531601,1.000000 
	C76.037354,2.885042 75.438972,5.109953 74.050713,6.597887 
	C67.028305,14.124429 59.907661,21.567606 52.592030,28.808195 
	C49.665604,31.704601 46.043156,33.882977 42.923187,36.601284 
	C31.776033,46.313366 20.740000,56.153038 9.586544,65.857811 
	C7.102749,68.018997 4.311847,69.827240 1.331171,71.898987 
	C1.000000,65.645599 1.000000,59.291203 1.342569,52.381760 
	C5.800512,49.098038 9.884486,46.320553 14.036824,43.649342 
	C29.959614,33.406181 42.718822,19.832836 54.499439,5.236594 
	C55.518417,3.974079 56.175053,2.419117 57.000000,1.000000 
	C63.354397,1.000000 69.708794,1.000000 76.531601,1.000000 
z"/>
<path fill="#6962AC" opacity="1.000000" stroke="none" 
	d="
M244.002441,58.999783 
	C248.836182,53.998882 253.553436,48.878689 258.527740,44.021763 
	C269.079193,33.719250 279.685944,23.469999 290.446259,13.387018 
	C293.406921,10.612738 296.990387,8.503093 300.644043,6.044240 
	C301.000000,10.356899 301.000000,14.713799 300.673096,19.636833 
	C299.626434,20.611349 298.761078,20.878639 298.208344,21.448906 
	C286.799133,33.219856 275.497253,45.083221 266.501801,58.903149 
	C265.515015,60.419140 264.191895,61.712200 263.134399,63.187229 
	C262.020264,64.741234 261.037628,66.389549 259.665375,68.098167 
	C255.957596,70.306496 252.662979,72.559372 249.187592,74.486183 
	C243.859192,77.440323 238.406326,80.169983 233.199646,82.711052 
	C236.929474,74.618057 240.465958,66.808914 244.002441,58.999783 
z"/>
<path fill="#75858C" opacity="1.000000" stroke="none" 
	d="
M268.000000,270.000000 
	C261.030182,280.095703 254.060364,290.191406 247.045273,300.643555 
	C242.310745,301.000000 237.621490,301.000000 232.466110,301.000000 
	C233.612274,294.137939 234.819214,287.146881 236.950562,280.450012 
	C239.093185,273.717773 242.155945,267.278351 244.905914,260.355286 
	C252.288040,254.570404 259.488892,249.011307 266.930389,243.795471 
	C268.991180,242.351059 271.767029,241.926849 274.526733,241.380402 
	C273.389832,247.936935 271.966095,254.153625 270.482025,260.355896 
	C269.709625,263.583740 268.830750,266.786133 268.000000,270.000000 
z"/>
<path fill="#5A5195" opacity="1.000000" stroke="none" 
	d="
M1.000000,268.449982 
	C6.155030,262.653839 11.517473,257.490051 16.416157,251.918488 
	C23.641788,243.700348 30.544626,235.198059 37.558361,226.794617 
	C38.079597,226.170120 38.387573,225.367615 39.267334,224.281067 
	C41.429253,223.307541 43.154793,222.785294 44.801132,222.078583 
	C50.215733,219.754242 55.601624,217.363052 61.332573,214.998138 
	C62.111996,214.999191 62.557392,214.999695 62.901249,215.333252 
	C57.479790,224.946838 52.102901,234.195435 46.875652,243.527847 
	C45.363438,246.227646 44.280796,249.168045 43.001221,251.998154 
	C31.116325,259.695831 19.260605,267.439362 7.311895,275.036652 
	C5.704817,276.058472 3.629048,276.343170 1.385155,276.984589 
	C1.000000,274.299988 1.000000,271.599976 1.000000,268.449982 
z"/>
<path fill="#5441A0" opacity="1.000000" stroke="none" 
	d="
M1.000000,201.000000 
	C1.000000,195.977905 1.000000,190.955811 1.324567,185.364288 
	C7.992504,178.527405 14.388447,172.311966 20.661606,165.974976 
	C25.193232,161.397232 29.561676,156.657944 34.361160,151.946747 
	C44.148335,146.929398 53.577248,141.955994 62.988136,137.378952 
	C62.647781,139.848114 62.325451,141.920898 61.815826,144.268738 
	C56.144043,151.602463 50.633450,158.641068 45.185158,165.727570 
	C42.071014,169.778076 39.058311,173.906601 35.667450,178.100861 
	C25.753502,184.762634 16.188387,191.347672 6.575687,197.862488 
	C4.816405,199.054810 2.863517,199.961472 1.000000,201.000000 
z"/>
<path fill="#4E34A7" opacity="1.000000" stroke="none" 
	d="
M0.999999,151.000000 
	C1.000000,141.645767 1.000000,132.291550 1.326333,122.367432 
	C2.980745,120.820076 4.405437,119.949127 5.620642,118.847183 
	C11.777670,113.263924 17.880295,107.620689 24.375900,101.956215 
	C33.071907,97.931969 41.379616,93.919434 49.725266,89.987427 
	C52.092636,88.872040 54.570633,87.991455 56.910622,87.348686 
	C55.651608,89.875359 54.805870,92.328918 53.250931,94.189911 
	C46.974705,101.701454 40.342022,108.916222 34.101021,116.455849 
	C26.596888,125.521423 19.357307,134.805984 11.810423,144.270416 
	C8.078437,146.696747 4.539217,148.848373 0.999999,151.000000 
z"/>
<path fill="#63648F" opacity="1.000000" stroke="none" 
	d="
M111.004883,277.001221 
	C105.700851,284.761414 100.396820,292.521606 95.046394,300.640900 
	C86.312439,301.000000 77.624870,301.000000 68.514290,300.642334 
	C75.061157,289.523132 82.031036,278.761566 89.336212,267.897705 
	C98.114029,263.197357 106.556564,258.599274 115.090912,254.358124 
	C117.171120,258.600403 116.635460,261.988617 114.381447,265.860016 
	C112.481689,269.122986 112.073372,273.254272 111.004883,277.001221 
z"/>
<path fill="#78898E" opacity="1.000000" stroke="none" 
	d="
M268.407532,269.980774 
	C268.830750,266.786133 269.709625,263.583740 270.482025,260.355896 
	C271.966095,254.153625 273.389832,247.936935 274.917480,241.363480 
	C277.382629,238.086197 279.494324,234.880554 282.211731,232.316971 
	C288.090240,226.771210 294.279144,221.554443 300.670563,216.101562 
	C301.000000,229.020889 301.000000,242.041794 301.000000,255.531342 
	C299.801910,256.525330 298.265350,256.741241 297.458374,257.624054 
	C289.743042,266.064850 279.257568,267.938965 268.407532,269.980774 
z"/>
<path fill="#6F7A8C" opacity="1.000000" stroke="none" 
	d="
M216.999390,250.002441 
	C214.208206,259.469360 210.294617,268.782135 208.966553,278.450012 
	C207.819855,286.797577 202.779907,292.924377 200.104034,300.659912 
	C191.979095,301.000000 183.958191,301.000000 175.553711,300.640228 
	C178.478241,293.466797 181.707184,286.613251 185.117508,279.851135 
	C188.311783,273.517456 191.698166,267.280670 195.384949,260.984314 
	C199.800064,258.848633 203.820236,256.710510 207.863678,254.617401 
	C210.893372,253.049042 213.953064,251.538635 216.999390,250.002441 
z"/>
<path fill="#513CA2" opacity="1.000000" stroke="none" 
	d="
M0.999999,151.468658 
	C4.539217,148.848373 8.078437,146.696747 12.180088,144.229797 
	C20.523762,139.585281 28.273958,135.198898 36.099384,130.951065 
	C39.996113,128.835846 44.030659,126.974510 47.914959,125.343887 
	C46.854515,127.608337 45.909546,129.541794 44.904472,131.443481 
	C41.281574,138.298355 37.638416,145.142502 34.002899,151.990692 
	C29.561676,156.657944 25.193232,161.397232 20.661606,165.974976 
	C14.388447,172.311966 7.992504,178.527405 1.324567,184.897430 
	C1.000000,173.979111 1.000000,162.958206 0.999999,151.468658 
z"/>
<path fill="#6F70A0" opacity="1.000000" stroke="none" 
	d="
M265.997467,102.998993 
	C274.060333,97.782654 282.071289,92.483376 290.211853,87.391251 
	C293.417847,85.385811 296.913116,83.842850 300.638336,82.044647 
	C301.000000,83.388893 301.000000,84.777779 301.000000,86.583336 
	C299.703217,87.960419 298.121765,88.696846 297.159088,89.920166 
	C293.075806,95.109085 289.111511,100.395454 285.225525,105.734810 
	C280.077637,112.807961 275.005707,119.937447 269.989197,127.104370 
	C268.865021,128.710480 268.105774,130.572052 266.755493,132.760376 
	C258.555359,137.137115 250.778290,141.069473 243.000885,144.626312 
	C242.999954,143.499817 242.999374,142.748825 243.189728,141.717438 
	C250.919601,128.624359 258.458527,115.811676 265.997467,102.998993 
z"/>
<path fill="#4E2FB3" opacity="1.000000" stroke="none" 
	d="
M125.531349,0.999999 
	C121.614960,5.857248 117.462936,10.952460 112.796280,15.522118 
	C103.136909,24.980700 93.203789,34.159714 82.834152,43.811668 
	C79.335373,45.570587 76.321526,46.852627 73.451736,48.401592 
	C69.576599,50.493202 65.812225,52.790031 62.102859,54.669456 
	C65.412727,49.778893 68.945786,45.407249 71.740341,40.605778 
	C74.843018,35.274895 77.271889,29.551846 79.994133,23.999542 
	C86.258873,17.474405 92.545853,10.970249 98.754280,4.391962 
	C99.381096,3.727805 99.533501,2.615906 99.953033,1.355896 
	C108.354233,1.000000 116.708466,1.000000 125.531349,0.999999 
z"/>
<path fill="#757F97" opacity="1.000000" stroke="none" 
	d="
M301.000000,178.531357 
	C298.457916,181.491226 295.601624,183.737076 293.430237,186.517776 
	C285.655914,196.473511 275.923004,203.435486 263.373169,206.541931 
	C262.332397,203.445419 261.665588,200.722397 261.109009,197.679871 
	C266.479492,188.904648 271.739777,180.448959 277.000031,171.993286 
	C282.985046,167.174805 288.938049,162.315659 294.976013,157.564499 
	C296.625275,156.266708 298.529816,155.293350 300.658630,154.085556 
	C301.000000,162.020905 301.000000,170.041809 301.000000,178.531357 
z"/>
<path fill="#6C758D" opacity="1.000000" stroke="none" 
	d="
M195.000000,261.001221 
	C191.698166,267.280670 188.311783,273.517456 185.117508,279.851135 
	C181.707184,286.613251 178.478241,293.466797 175.085068,300.640228 
	C167.312424,301.000000 159.624832,301.000000 151.468628,301.000000 
	C153.643295,295.903625 156.629700,290.952759 158.864624,285.683197 
	C165.199280,270.747162 177.579559,261.820374 190.689148,253.479904 
	C192.354279,256.172272 193.677139,258.586761 195.000000,261.001221 
z"/>
<path fill="#4B2DAB" opacity="1.000000" stroke="none" 
	d="
M24.001991,101.998474 
	C17.880295,107.620689 11.777670,113.263924 5.620642,118.847183 
	C4.405437,119.949127 2.980745,120.820076 1.326333,121.898773 
	C1.000000,112.312439 1.000000,102.624878 1.000000,92.468658 
	C5.114873,89.383369 9.264740,86.819519 13.328367,84.125587 
	C15.093685,82.955292 16.681639,81.517456 19.038017,80.014519 
	C21.441965,79.236801 23.228216,78.795326 24.862164,78.029083 
	C32.597248,74.401680 40.290737,70.685577 47.897198,67.336067 
	C41.099541,77.045067 34.376854,86.400085 27.729828,95.808556 
	C26.343729,97.770493 25.237303,99.930008 24.001991,101.998474 
z"/>
<path fill="#55459B" opacity="1.000000" stroke="none" 
	d="
M1.000000,201.468658 
	C2.863517,199.961472 4.816405,199.054810 6.575687,197.862488 
	C16.188387,191.347672 25.753502,184.762634 35.888123,178.341156 
	C38.294083,180.320587 40.146889,182.160599 41.999699,184.000610 
	C37.371155,189.840271 32.775799,195.706619 28.106136,201.513199 
	C21.439756,209.802628 14.795943,218.112747 7.968954,226.268768 
	C6.194209,228.389008 3.774796,229.969620 1.325741,231.899048 
	C1.000000,221.979111 1.000000,211.958206 1.000000,201.468658 
z"/>
<path fill="#605E8F" opacity="1.000000" stroke="none" 
	d="
M89.000916,268.000000 
	C82.031036,278.761566 75.061157,289.523132 68.045639,300.642334 
	C60.312424,301.000000 52.624847,301.000000 44.468636,301.000000 
	C47.832432,294.020996 51.645428,287.031158 55.510361,280.070221 
	C56.533180,278.228027 57.715912,276.474609 59.269829,274.255219 
	C62.665279,272.429047 65.653023,271.100220 68.559586,269.612732 
	C75.393242,266.115479 82.188118,262.542419 88.928207,259.356262 
	C88.905457,262.474976 88.953186,265.237488 89.000916,268.000000 
z"/>
<path fill="#6356AF" opacity="1.000000" stroke="none" 
	d="
M272.531342,1.000001 
	C272.485840,2.178529 272.263733,3.655237 271.412201,4.489329 
	C263.162231,12.570035 254.806702,20.542934 245.895538,28.861488 
	C243.843246,29.910698 242.383698,30.659344 240.909073,31.376978 
	C232.941528,35.254398 224.970261,39.124153 217.000275,42.996552 
	C219.916565,32.494358 226.952118,24.657442 233.781143,16.613577 
	C237.784973,11.897496 241.219421,6.698034 244.954987,1.358004 
	C254.020889,1.000000 263.041779,1.000000 272.531342,1.000001 
z"/>
<path fill="#4319B7" opacity="1.000000" stroke="none" 
	d="
M1.000000,38.000000 
	C1.000000,25.735374 1.000000,13.470749 1.000000,1.000000 
	C14.686872,1.000000 28.374777,1.000000 42.486214,1.356238 
	C41.561192,3.506603 40.473160,5.597633 38.821793,7.046659 
	C28.120914,16.436359 17.331255,25.726198 6.476117,34.937313 
	C4.911235,36.265190 2.837989,36.993973 1.000000,38.000000 
z"/>
<path fill="#6C67AA" opacity="1.000000" stroke="none" 
	d="
M259.997559,67.996643 
	C261.037628,66.389549 262.020264,64.741234 263.134399,63.187229 
	C264.191895,61.712200 265.515015,60.419140 266.501801,58.903149 
	C275.497253,45.083221 286.799133,33.219856 298.208344,21.448906 
	C298.761078,20.878639 299.626434,20.611349 300.673096,20.101484 
	C301.000000,28.687563 301.000000,37.375126 301.000000,46.531349 
	C295.764648,50.735977 290.641663,54.643513 285.265503,58.164547 
	C278.525726,62.578663 271.578278,66.675690 264.100708,70.781075 
	C262.319824,69.767258 261.158691,68.881950 259.997559,67.996643 
z"/>
<path fill="#451DB5" opacity="1.000000" stroke="none" 
	d="
M1.000000,38.464653 
	C2.837989,36.993973 4.911235,36.265190 6.476117,34.937313 
	C17.331255,25.726198 28.120914,16.436359 38.821793,7.046659 
	C40.473160,5.597633 41.561192,3.506603 42.954872,1.356238 
	C47.356899,1.000000 51.713799,1.000000 56.535347,1.000000 
	C56.175053,2.419117 55.518417,3.974079 54.499439,5.236594 
	C42.718822,19.832836 29.959614,33.406181 14.036824,43.649342 
	C9.884486,46.320553 5.800512,49.098038 1.342569,51.913353 
	C1.000000,47.643101 1.000000,43.286201 1.000000,38.464653 
z"/>
<path fill="#5D5697" opacity="1.000000" stroke="none" 
	d="
M43.348587,251.910400 
	C44.280796,249.168045 45.363438,246.227646 46.875652,243.527847 
	C52.102901,234.195435 57.479790,224.946838 63.203712,215.179657 
	C64.960846,213.745773 66.282127,212.748749 67.672409,211.859634 
	C75.440353,206.891785 83.225006,201.950043 91.214081,197.272018 
	C95.217300,200.476105 93.372993,203.752396 91.898911,207.336990 
	C88.374771,213.124344 84.873268,218.525681 81.557877,224.038956 
	C78.597916,228.961121 75.843521,234.006912 72.998413,238.998169 
	C65.151253,242.342468 57.296135,245.668335 49.462521,249.044083 
	C47.504772,249.887756 45.616280,250.892151 43.348587,251.910400 
z"/>
<path fill="#605A98" opacity="1.000000" stroke="none" 
	d="
M73.086823,239.265884 
	C75.843521,234.006912 78.597916,228.961121 81.557877,224.038956 
	C84.873268,218.525681 88.374771,213.124344 92.224487,207.235779 
	C98.093697,203.096695 103.229675,198.790649 109.058289,195.864029 
	C115.017662,192.871719 121.656319,191.232269 127.897346,189.333130 
	C118.865028,202.110229 109.932976,214.554825 100.656601,227.087296 
	C98.832924,227.917694 97.339645,228.633835 95.876579,229.407166 
	C88.580833,233.263367 81.293030,237.134644 74.002434,241.000610 
	C73.726700,240.511612 73.450966,240.022598 73.086823,239.265884 
z"/>
<path fill="#605C93" opacity="1.000000" stroke="none" 
	d="
M73.956696,241.356689 
	C81.293030,237.134644 88.580833,233.263367 95.876579,229.407166 
	C97.339645,228.633835 98.832924,227.917694 100.657990,227.487747 
	C101.669548,230.200058 102.335388,232.599792 102.898743,235.335083 
	C98.197067,243.447067 93.597870,251.223526 88.998680,259.000000 
	C82.188118,262.542419 75.393242,266.115479 68.559586,269.612732 
	C65.653023,271.100220 62.665279,272.429047 59.356609,273.913757 
	C59.426369,271.034882 59.111439,267.684479 60.418682,265.181183 
	C64.592094,257.189178 69.367821,249.511703 73.956696,241.356689 
z"/>
<path fill="#6F739B" opacity="1.000000" stroke="none" 
	d="
M243.001221,145.001831 
	C250.778290,141.069473 258.555359,137.137115 266.668640,133.102997 
	C270.965790,134.657013 272.132568,136.475830 269.376770,140.836899 
	C263.550842,150.056335 258.528320,159.783493 252.746811,169.737320 
	C251.144409,170.750381 249.925598,171.251572 248.805939,171.919098 
	C241.525696,176.259598 234.266983,180.636246 226.755249,184.785980 
	C226.672424,181.713730 226.835602,178.856552 227.040985,175.628693 
	C228.905060,171.561920 230.636810,167.817993 232.568695,164.180359 
	C235.981934,157.753387 239.517075,151.391144 243.001221,145.001831 
z"/>
<path fill="#6F7596" opacity="1.000000" stroke="none" 
	d="
M227.001221,185.001068 
	C234.266983,180.636246 241.525696,176.259598 248.805939,171.919098 
	C249.925598,171.251572 251.144409,170.750381 252.658249,170.085205 
	C252.716888,171.109085 252.434647,172.220001 252.033203,174.051819 
	C249.936478,179.408203 248.188110,184.158966 245.928101,188.652390 
	C242.470001,195.527924 238.659073,202.225983 234.638611,209.084595 
	C231.240051,210.419647 228.108429,211.485718 225.180359,212.956879 
	C218.732803,216.196365 212.387985,219.640305 206.001221,223.000793 
	C206.283371,221.890198 206.565521,220.779587 207.007446,218.978683 
	C208.009293,216.330719 208.622711,214.231598 209.731827,212.439178 
	C215.418076,203.249695 221.231949,194.139175 227.001221,185.001068 
z"/>
<path fill="#727A97" opacity="1.000000" stroke="none" 
	d="
M234.997894,208.999390 
	C238.659073,202.225983 242.470001,195.527924 245.928101,188.652390 
	C248.188110,184.158966 249.936478,179.408203 251.957611,174.387268 
	C257.481323,170.714279 262.963287,167.429810 268.440216,164.137039 
	C269.854553,163.286743 271.158447,162.053696 272.686035,161.648071 
	C274.157196,161.257462 276.290222,161.156845 277.310699,161.965652 
	C278.133392,162.617691 277.902283,164.823853 277.826233,166.324707 
	C277.743622,167.954865 277.299774,169.566711 277.006714,171.589905 
	C271.739777,180.448959 266.479492,188.904648 260.749756,197.725479 
	C252.187424,202.060928 244.094620,206.031235 235.842178,209.826935 
	C235.464325,209.424194 235.236099,209.206558 234.997894,208.999390 
z"/>
<path fill="#727B93" opacity="1.000000" stroke="none" 
	d="
M236.001801,210.001541 
	C244.094620,206.031235 252.187424,202.060928 260.639526,198.045013 
	C261.665588,200.722397 262.332397,203.445419 262.999603,206.584518 
	C260.254395,216.724045 253.184082,223.683243 247.186340,231.724243 
	C238.703293,234.539413 231.283051,238.586807 224.749924,244.364182 
	C222.691666,246.184357 220.043961,247.337997 217.379486,248.536041 
	C217.341370,247.494308 217.482681,246.657730 217.854279,245.940475 
	C223.427216,235.183823 229.043686,224.449692 234.607681,213.688431 
	C235.207092,212.529114 235.543442,211.233780 236.001801,210.001541 
z"/>
<path fill="#6F7792" opacity="1.000000" stroke="none" 
	d="
M235.842178,209.826935 
	C235.543442,211.233780 235.207092,212.529114 234.607681,213.688431 
	C229.043686,224.449692 223.427216,235.183823 217.854279,245.940475 
	C217.482681,246.657730 217.341370,247.494308 217.047394,248.636475 
	C217.001389,249.165024 217.000961,249.332504 216.999954,249.751205 
	C213.953064,251.538635 210.893372,253.049042 207.863678,254.617401 
	C203.820236,256.710510 199.800064,258.848633 195.384949,260.984314 
	C193.677139,258.586761 192.354279,256.172272 191.015411,253.378586 
	C195.870728,243.193100 200.742065,233.386826 205.807312,223.290680 
	C212.387985,219.640305 218.732803,216.196365 225.180359,212.956879 
	C228.108429,211.485718 231.240051,210.419647 234.638626,209.084595 
	C235.236099,209.206558 235.464325,209.424194 235.842178,209.826935 
z"/>
<path fill="#6C7196" opacity="1.000000" stroke="none" 
	d="
M226.755234,184.785980 
	C221.231949,194.139175 215.418076,203.249695 209.731827,212.439178 
	C208.622711,214.231598 208.009293,216.330719 207.083008,218.643280 
	C198.774063,222.365936 190.550415,225.736328 182.323654,229.099091 
	C180.800995,229.721481 179.265671,230.312866 177.369003,230.960327 
	C177.001068,230.556778 177.000320,230.111481 177.153595,229.028351 
	C182.499710,219.942169 187.757614,211.533035 192.830765,203.013870 
	C193.901367,201.216064 194.295044,199.015167 195.344818,196.912170 
	C204.595398,192.191696 213.526825,187.651718 220.530228,180.113937 
	C222.213104,178.302658 224.817947,177.348007 226.998779,175.999390 
	C226.835602,178.856552 226.672424,181.713730 226.755234,184.785980 
z"/>
<path fill="#5A4CA1" opacity="1.000000" stroke="none" 
	d="
M65.001587,178.000702 
	C62.891224,177.088028 60.780865,176.175339 58.542595,174.870224 
	C62.138424,170.100525 65.862228,165.723312 69.585892,161.345978 
	C77.058250,152.561905 84.530533,143.777756 92.337845,134.891968 
	C97.925758,132.571548 103.178658,130.352768 108.386963,128.588120 
	C106.963669,137.007523 108.629807,144.293320 112.866043,151.017120 
	C110.331665,152.263962 107.912544,153.114944 106.027977,154.630600 
	C100.241623,159.284225 94.660110,164.192520 88.593658,169.007751 
	C85.214180,169.839386 82.133301,170.400955 79.289673,171.549789 
	C74.448410,173.505630 69.756332,175.830750 65.001587,178.000702 
z"/>
<path fill="#5747A1" opacity="1.000000" stroke="none" 
	d="
M92.002838,134.993637 
	C84.530533,143.777756 77.058250,152.561905 69.585892,161.345978 
	C65.862228,165.723312 62.138424,170.100525 58.208580,174.737991 
	C52.898769,177.940521 47.795067,180.882874 42.345531,183.912903 
	C40.146889,182.160599 38.294083,180.320587 36.220600,178.240295 
	C39.058311,173.906601 42.071014,169.778076 45.185158,165.727570 
	C50.633450,158.641068 56.144043,151.602463 62.171921,144.223938 
	C64.426765,142.973129 66.104065,141.971664 67.855652,141.123642 
	C74.892014,137.716995 81.951370,134.357864 89.233849,131.202667 
	C90.311264,132.613983 91.157051,133.803818 92.002838,134.993637 
z"/>
<path fill="#5A4E9B" opacity="1.000000" stroke="none" 
	d="
M64.897491,178.331512 
	C69.756332,175.830750 74.448410,173.505630 79.289673,171.549789 
	C82.133301,170.400955 85.214180,169.839386 88.493111,169.340073 
	C85.823029,174.974472 83.095680,180.441833 79.807892,185.548355 
	C76.069412,191.354889 71.650856,196.721802 67.870583,202.503845 
	C65.277199,206.470505 63.268566,210.819473 60.998547,214.997559 
	C55.601624,217.363052 50.215733,219.754242 44.801132,222.078583 
	C43.154793,222.785294 41.429253,223.307541 39.367863,223.955322 
	C34.484970,219.933273 34.128788,218.405960 37.900017,213.605865 
	C44.952854,204.628983 52.336956,195.912933 59.438545,186.973434 
	C61.478451,184.405594 63.022175,181.443573 64.897491,178.331512 
z"/>
<path fill="#4B2CB0" opacity="1.000000" stroke="none" 
	d="
M47.999046,67.001076 
	C40.290737,70.685577 32.597248,74.401680 24.862164,78.029083 
	C23.228216,78.795326 21.441965,79.236801 19.364025,79.913422 
	C19.437096,79.111443 19.696938,78.066200 20.333124,77.360008 
	C30.521919,66.049942 40.064899,54.030403 51.213135,43.754391 
	C59.520924,36.096588 69.919342,30.706871 79.690414,24.153301 
	C77.271889,29.551846 74.843018,35.274895 71.740341,40.605778 
	C68.945786,45.407249 65.412727,49.778893 61.878998,54.913986 
	C57.034756,59.325600 52.516899,63.163338 47.999046,67.001076 
z"/>
<path fill="#696B96" opacity="1.000000" stroke="none" 
	d="
M195.000610,197.000000 
	C194.295044,199.015167 193.901367,201.216064 192.830765,203.013870 
	C187.757614,211.533035 182.499710,219.942169 177.153198,228.694397 
	C171.642273,231.516113 166.320847,234.112671 160.915359,236.520493 
	C157.951447,237.840759 154.845703,238.842590 151.491669,239.602936 
	C153.452591,232.478775 155.725754,225.739700 158.188110,218.723907 
	C163.247147,212.386780 168.131317,206.337753 172.965195,200.248825 
	C173.463516,199.621140 173.661850,198.755325 174.358154,197.954712 
	C176.743896,196.827164 178.755035,195.713913 180.801086,194.669022 
	C185.191177,192.427094 189.599289,190.220474 194.090027,188.391983 
	C194.453568,191.523056 194.727097,194.261520 195.000610,197.000000 
z"/>
<path fill="#666792" opacity="1.000000" stroke="none" 
	d="
M157.998917,219.000610 
	C155.725754,225.739700 153.452591,232.478775 151.089706,239.608932 
	C143.729065,249.034332 136.505463,258.107330 129.169647,267.088684 
	C124.674263,272.592499 118.584885,275.446686 111.393036,276.984222 
	C112.073372,273.254272 112.481689,269.122986 114.381447,265.860016 
	C116.635460,261.988617 117.171120,258.600403 115.278709,254.082916 
	C120.250191,246.966827 125.125702,240.482849 130.351059,233.910004 
	C132.221878,233.170532 133.815109,232.649399 135.251770,231.847687 
	C142.855850,227.604233 150.420547,223.290176 157.998917,219.000610 
z"/>
<path fill="#5139A8" opacity="1.000000" stroke="none" 
	d="
M48.002865,124.998322 
	C44.030659,126.974510 39.996113,128.835846 36.099384,130.951065 
	C28.273958,135.198898 20.523762,139.585281 12.372853,143.955109 
	C19.357307,134.805984 26.596888,125.521423 34.101021,116.455849 
	C40.342022,108.916222 46.974705,101.701454 53.250931,94.189911 
	C54.805870,92.328918 55.651608,89.875359 57.155628,87.124069 
	C62.324951,82.368195 67.161995,78.182419 71.999031,73.996643 
	C75.759628,72.361145 79.520218,70.725647 83.641022,69.044083 
	C84.874924,70.816322 85.748627,72.634613 86.711304,75.058395 
	C84.952118,78.190521 83.146309,80.749451 81.248077,83.237885 
	C74.844757,91.632118 68.503067,100.076065 61.952335,108.354225 
	C57.462093,114.028542 52.663578,119.458908 48.002865,124.998322 
z"/>
<path fill="#4E32AD" opacity="1.000000" stroke="none" 
	d="
M72.001129,73.582680 
	C67.161995,78.182419 62.324951,82.368195 57.242905,86.778580 
	C54.570633,87.991455 52.092636,88.872040 49.725266,89.987427 
	C41.379616,93.919434 33.071907,97.931969 24.375900,101.956215 
	C25.237303,99.930008 26.343729,97.770493 27.729828,95.808556 
	C34.376854,86.400085 41.099541,77.045067 47.897194,67.336067 
	C52.516899,63.163338 57.034756,59.325600 61.776466,55.243336 
	C65.812225,52.790031 69.576599,50.493202 73.451736,48.401592 
	C76.321526,46.852627 79.335373,45.570587 82.642754,44.085667 
	C83.561096,52.316898 77.567390,57.936035 74.532883,64.780006 
	C73.358223,67.429291 72.827362,70.364021 72.001129,73.582680 
z"/>
<path fill="#6967A1" opacity="1.000000" stroke="none" 
	d="
M244.998779,98.000755 
	C247.771835,101.881920 249.615402,105.845619 245.836731,110.904388 
	C240.751190,116.486641 235.627716,121.205536 231.174469,126.489296 
	C227.382202,130.988800 224.361450,136.138535 220.665131,141.102295 
	C214.500046,144.188141 208.715500,147.269455 202.804825,150.086075 
	C201.381363,150.764404 199.539917,150.565521 197.987747,150.440369 
	C204.236099,141.146347 204.520142,131.740936 200.579498,121.989731 
	C201.975189,121.992928 202.990341,121.995705 204.369293,121.951958 
	C210.870239,118.719208 217.181671,115.823540 223.100616,112.273499 
	C230.567444,107.795082 237.714035,102.782753 244.998779,98.000755 
z"/>
<path fill="#6964A5" opacity="1.000000" stroke="none" 
	d="
M245.100281,97.674332 
	C237.714035,102.782753 230.567444,107.795082 223.100616,112.273499 
	C217.181671,115.823540 210.870239,118.719208 204.468445,121.620216 
	C206.446259,118.082375 208.563446,114.734344 210.954559,111.594955 
	C218.248489,102.018463 225.647919,92.522324 233.006287,82.994911 
	C238.406326,80.169983 243.859192,77.440323 249.187592,74.486183 
	C252.662979,72.559372 255.957596,70.306496 259.665375,68.098160 
	C261.158691,68.881950 262.319824,69.767258 263.741089,70.826706 
	C262.374237,73.448425 260.824341,75.951668 259.105408,78.332840 
	C254.509628,84.699196 249.841278,91.013145 245.100281,97.674332 
z"/>
<path fill="#6C6B9F" opacity="1.000000" stroke="none" 
	d="
M220.999390,141.000610 
	C224.361450,136.138535 227.382202,130.988800 231.174469,126.489296 
	C235.627716,121.205536 240.751190,116.486641 245.790863,111.261520 
	C248.653976,109.181778 251.402222,107.482178 253.943970,105.515686 
	C257.390564,102.849113 260.640594,99.826927 265.707153,102.818916 
	C258.458527,115.811676 250.919601,128.624359 242.825836,141.764877 
	C236.180084,144.728668 230.089157,147.364639 223.767395,149.725739 
	C222.690842,146.634109 221.845108,143.817368 220.999390,141.000610 
z"/>
<path fill="#6358AA" opacity="1.000000" stroke="none" 
	d="
M216.782211,43.250427 
	C224.970261,39.124153 232.941528,35.254398 240.909073,31.376978 
	C242.383698,30.659344 243.843246,29.910698 245.653961,29.088711 
	C243.039581,34.454227 240.310104,40.048996 237.053543,45.318001 
	C234.190308,49.950638 230.634415,54.150127 227.605972,58.688747 
	C226.679840,60.076694 226.486511,61.953617 225.957596,63.606613 
	C227.627716,63.644314 229.297867,63.680237 230.967911,63.720814 
	C231.458832,63.732742 231.949432,63.757858 232.531738,64.161606 
	C227.593475,70.018425 222.474609,75.411903 217.554504,80.980995 
	C210.021255,89.507904 202.562439,98.103050 195.224426,106.797852 
	C193.790543,108.496841 193.050797,110.781662 191.662048,112.694122 
	C183.650787,107.736549 175.491928,107.309174 167.111023,109.657898 
	C174.568695,102.166260 181.942520,95.017845 189.250229,87.802467 
	C192.419739,84.672997 195.388458,81.339989 198.562820,78.215691 
	C203.743942,73.116241 202.492065,66.158112 203.997864,59.997215 
	C208.186630,54.499580 212.375397,49.001942 216.782211,43.250427 
z"/>
<path fill="#6054A7" opacity="1.000000" stroke="none" 
	d="
M203.670532,60.099060 
	C202.492065,66.158112 203.743942,73.116241 198.562820,78.215691 
	C195.388458,81.339989 192.419739,84.672997 189.250229,87.802467 
	C181.942520,95.017845 174.568695,102.166260 166.850250,109.885010 
	C159.410858,116.539436 152.272110,117.167618 144.981689,110.776978 
	C144.260178,110.144501 143.268799,109.819870 142.718628,109.149170 
	C154.023743,98.294853 165.012924,87.643723 176.002090,76.992584 
	C183.897949,72.231445 191.799759,67.480141 199.683624,62.699196 
	C200.944733,61.934441 202.125366,61.037003 203.670532,60.099060 
z"/>
<path fill="#5D4EA8" opacity="1.000000" stroke="none" 
	d="
M175.842407,76.666580 
	C165.012924,87.643723 154.023743,98.294853 142.336456,109.117737 
	C138.756790,108.851074 135.875229,108.412666 133.044403,107.602264 
	C136.747070,94.335373 146.318115,85.279831 154.001221,74.999710 
	C159.408325,71.830643 164.820694,68.670509 170.220123,65.488441 
	C172.605667,64.082565 174.965027,62.632271 177.670273,61.100746 
	C177.428040,62.988163 177.334717,65.337669 176.174866,66.890602 
	C173.774445,70.104576 173.771408,73.082275 175.842407,76.666580 
z"/>
<path fill="#665FA5" opacity="1.000000" stroke="none" 
	d="
M191.990875,112.796272 
	C193.050797,110.781662 193.790543,108.496841 195.224426,106.797852 
	C202.562439,98.103050 210.021255,89.507904 217.554504,80.980995 
	C222.474609,75.411903 227.593475,70.018425 232.810120,64.271324 
	C236.441910,62.398861 239.886856,60.801357 243.667114,59.101814 
	C240.465958,66.808914 236.929474,74.618057 233.199646,82.711052 
	C225.647919,92.522324 218.248489,102.018463 210.954559,111.594955 
	C208.563446,114.734344 206.446259,118.082375 204.104645,121.666733 
	C202.990341,121.995705 201.975189,121.992928 200.354950,121.729675 
	C197.163528,118.578224 194.577209,115.687248 191.990875,112.796272 
z"/>
<path fill="#543DA9" opacity="1.000000" stroke="none" 
	d="
M47.914959,125.343887 
	C52.663578,119.458908 57.462093,114.028542 61.952335,108.354225 
	C68.503067,100.076065 74.844757,91.632118 81.248077,83.237885 
	C83.146309,80.749451 84.952118,78.190521 86.901123,75.332703 
	C94.094093,71.381828 101.181564,67.753029 108.280708,64.147194 
	C110.940849,62.796043 113.628120,61.498314 116.651207,60.087402 
	C116.999809,61.388424 117.000229,62.778271 116.898514,64.913040 
	C115.609108,67.453400 114.591667,69.393539 113.205902,71.019829 
	C106.321709,79.098953 99.233749,87.006371 92.435745,95.156265 
	C88.705315,99.628571 83.582153,103.453964 84.455582,110.503662 
	C84.596199,111.638641 83.184021,113.100021 82.252785,114.212189 
	C75.872574,121.831902 69.429192,129.398727 63.006157,136.982590 
	C53.577248,141.955994 44.148335,146.929398 34.361164,151.946747 
	C37.638416,145.142502 41.281574,138.298355 44.904472,131.443481 
	C45.909546,129.541794 46.854515,127.608337 47.914959,125.343887 
z"/>
<path fill="#5A48AA" opacity="1.000000" stroke="none" 
	d="
M154.046478,74.642273 
	C146.318115,85.279831 136.747070,94.335373 132.677368,107.728821 
	C120.141800,109.865318 112.207512,116.510910 108.431549,128.133987 
	C103.178658,130.352768 97.925758,132.571548 92.337845,134.891968 
	C91.157051,133.803818 90.311264,132.613983 89.320709,130.862534 
	C91.068359,127.417435 92.712265,124.327950 94.899902,121.689232 
	C101.405289,113.842461 109.336571,107.099686 113.340668,97.347145 
	C113.773148,96.293785 114.482071,95.314720 115.219109,94.431686 
	C122.426178,85.797028 129.689911,77.209610 136.886780,68.566490 
	C140.149368,64.648247 142.506546,60.395668 141.003738,55.002655 
	C146.961212,49.144798 152.497513,42.759956 158.989792,37.571259 
	C166.059738,31.920893 174.008087,27.367260 181.599854,22.375584 
	C182.414139,21.840176 183.404099,21.571922 184.653503,21.095715 
	C182.414459,27.060362 181.198242,34.396248 176.963409,38.883015 
	C168.780243,47.553028 164.406174,58.395580 157.661926,67.798195 
	C156.233612,69.789513 155.269638,72.113914 154.046478,74.642273 
z"/>
<path fill="#5743AA" opacity="1.000000" stroke="none" 
	d="
M140.651642,55.091484 
	C142.506546,60.395668 140.149368,64.648247 136.886780,68.566490 
	C129.689911,77.209610 122.426178,85.797028 115.219109,94.431686 
	C114.482071,95.314720 113.773148,96.293785 113.340668,97.347145 
	C109.336571,107.099686 101.405289,113.842461 94.899902,121.689232 
	C92.712265,124.327950 91.068359,127.417435 89.089081,130.641022 
	C81.951370,134.357864 74.892014,137.716995 67.855652,141.123642 
	C66.104065,141.971664 64.426765,142.973129 62.359222,143.948883 
	C62.325451,141.920898 62.647781,139.848114 62.988136,137.378952 
	C69.429192,129.398727 75.872574,121.831902 82.252785,114.212189 
	C83.184021,113.100021 84.596199,111.638641 84.455582,110.503662 
	C83.582153,103.453964 88.705315,99.628571 92.435745,95.156265 
	C99.233749,87.006371 106.321709,79.098953 113.205902,71.019829 
	C114.591667,69.393539 115.609108,67.453400 116.898666,65.329956 
	C124.767151,61.728073 132.533340,58.454193 140.651642,55.091484 
z"/>
<path fill="#5D539D" opacity="1.000000" stroke="none" 
	d="
M61.332577,214.998138 
	C63.268566,210.819473 65.277199,206.470505 67.870583,202.503845 
	C71.650856,196.721802 76.069412,191.354889 79.807892,185.548355 
	C83.095680,180.441833 85.823029,174.974472 88.898422,169.334137 
	C94.660110,164.192520 100.241623,159.284225 106.027977,154.630600 
	C107.912544,153.114944 110.331665,152.263962 113.154251,151.174713 
	C117.044403,155.094864 120.286606,158.949280 123.251091,163.036377 
	C113.280891,173.382278 103.582825,183.490158 93.904091,193.616516 
	C92.879333,194.688675 91.967934,195.869156 91.003952,196.999390 
	C83.225006,201.950043 75.440353,206.891785 67.672409,211.859634 
	C66.282127,212.748749 64.960846,213.745773 63.305244,214.846588 
	C62.557392,214.999695 62.111996,214.999191 61.332577,214.998138 
z"/>
<path fill="#636293" opacity="1.000000" stroke="none" 
	d="
M130.001221,233.998886 
	C125.125702,240.482849 120.250191,246.966827 115.186890,253.726013 
	C106.556564,258.599274 98.114029,263.197357 89.336212,267.897705 
	C88.953186,265.237488 88.905457,262.474976 88.928200,259.356232 
	C93.597870,251.223526 98.197067,243.447067 103.230278,235.231064 
	C110.056030,230.479553 116.447792,226.167618 122.839508,221.855606 
	C126.226448,219.570663 129.613312,217.285614 132.907791,215.360474 
	C131.877319,221.813171 130.939270,227.906036 130.001221,233.998886 
z"/>
<path fill="#6C6E9A" opacity="1.000000" stroke="none" 
	d="
M223.998245,150.000610 
	C230.089157,147.364639 236.180084,144.728668 242.634888,142.045288 
	C242.999374,142.748825 242.999954,143.499817 243.000885,144.626312 
	C239.517075,151.391144 235.981934,157.753387 232.568695,164.180359 
	C230.636810,167.817993 228.905060,171.561920 227.040985,175.628693 
	C224.817947,177.348007 222.213104,178.302658 220.530228,180.113937 
	C213.526825,187.651718 204.595398,192.191696 195.344803,196.912170 
	C194.727097,194.261520 194.453568,191.523056 194.176544,188.051147 
	C194.966858,185.883179 195.543030,184.260941 196.591125,183.045700 
	C201.880753,176.912491 207.422638,170.993576 212.620773,164.785736 
	C216.609772,160.021912 220.219727,154.940689 223.998245,150.000610 
z"/>
<path fill="#61599C" opacity="1.000000" stroke="none" 
	d="
M91.214073,197.272018 
	C91.967934,195.869156 92.879333,194.688675 93.904091,193.616516 
	C103.582825,183.490158 113.280891,173.382278 123.510300,163.219879 
	C129.324966,169.454987 134.602692,175.739304 139.554886,182.124878 
	C135.485428,184.484314 131.741516,186.742462 127.997612,189.000610 
	C121.656319,191.232269 115.017662,192.871719 109.058289,195.864029 
	C103.229675,198.790649 98.093697,203.096695 92.328110,206.898468 
	C93.372993,203.752396 95.217300,200.476105 91.214073,197.272018 
z"/>
<path fill="#635F98" opacity="1.000000" stroke="none" 
	d="
M127.897346,189.333130 
	C131.741516,186.742462 135.485428,184.484314 139.848022,182.293839 
	C143.642273,185.978210 146.817871,189.594894 149.974426,193.581573 
	C148.618500,196.484802 147.683914,199.364227 145.862717,201.480774 
	C141.810684,206.189987 137.315048,210.517517 133.000214,215.000610 
	C129.613312,217.285614 126.226448,219.570663 122.839508,221.855606 
	C116.447792,226.167618 110.056030,230.479553 103.332756,234.895538 
	C102.335388,232.599792 101.669548,230.200058 101.002319,227.399857 
	C109.932976,214.554825 118.865028,202.110229 127.897346,189.333130 
z"/>
<path fill="#FEFEFE" opacity="1.000000" stroke="none" 
	d="
M149.993454,193.211594 
	C146.817871,189.594894 143.642273,185.978210 140.173553,182.192566 
	C134.602692,175.739304 129.324966,169.454987 123.788025,162.987183 
	C120.286606,158.949280 117.044403,155.094864 113.513992,151.082886 
	C108.629807,144.293320 106.963669,137.007523 108.386963,128.588120 
	C112.207512,116.510910 120.141800,109.865318 132.626648,108.100815 
	C135.875229,108.412666 138.756790,108.851074 142.020508,109.320923 
	C143.268799,109.819870 144.260178,110.144501 144.981689,110.776978 
	C152.272110,117.167618 159.410858,116.539436 166.739594,110.201057 
	C175.491928,107.309174 183.650787,107.736549 191.662048,112.694122 
	C194.577209,115.687248 197.163528,118.578224 199.974396,121.729256 
	C204.520142,131.740936 204.236099,141.146347 197.696075,150.615341 
	C188.457916,161.541595 179.608475,171.963196 170.472534,182.586853 
	C168.235275,185.045898 166.273315,187.293381 164.335922,189.561813 
	C159.587448,195.121658 156.859787,195.821289 149.993454,193.211594 
z"/>
<path fill="#69699B" opacity="1.000000" stroke="none" 
	d="
M170.759033,182.384796 
	C179.608475,171.963196 188.457916,161.541595 197.599030,150.945038 
	C199.539917,150.565521 201.381363,150.764404 202.804825,150.086075 
	C208.715500,147.269455 214.500046,144.188141 220.665146,141.102295 
	C221.845108,143.817368 222.690842,146.634109 223.767395,149.725739 
	C220.219727,154.940689 216.609772,160.021912 212.620773,164.785736 
	C207.422638,170.993576 201.880753,176.912491 196.591125,183.045700 
	C195.543030,184.260941 194.966858,185.883179 194.086517,187.658554 
	C189.599289,190.220474 185.191177,192.427094 180.801086,194.669022 
	C178.755035,195.713913 176.743896,196.827164 174.055481,197.806381 
	C172.878052,195.841110 171.378693,193.469940 172.029861,192.211792 
	C174.009338,188.387054 173.351212,185.379684 170.759033,182.384796 
z"/>
<path fill="#666597" opacity="1.000000" stroke="none" 
	d="
M170.472534,182.586853 
	C173.351212,185.379684 174.009338,188.387054 172.029861,192.211792 
	C171.378693,193.469940 172.878052,195.841110 173.696716,197.851654 
	C173.661850,198.755325 173.463516,199.621140 172.965195,200.248825 
	C168.131317,206.337753 163.247147,212.386780 158.188110,218.723892 
	C150.420547,223.290176 142.855850,227.604233 135.251770,231.847687 
	C133.815109,232.649399 132.221878,233.170532 130.351074,233.910004 
	C130.939270,227.906036 131.877319,221.813171 132.907791,215.360474 
	C137.315048,210.517517 141.810684,206.189987 145.862717,201.480774 
	C147.683914,199.364227 148.618500,196.484802 149.974426,193.581573 
	C156.859787,195.821289 159.587448,195.121658 164.335922,189.561813 
	C166.273315,187.293381 168.235275,185.045898 170.472534,182.586853 
z"/>
</svg>